<svg version="1.1" id="Layer_1" xmlns="http://www.w3.org/2000/svg" xmlns:xlink="http://www.w3.org/1999/xlink" x="0px" y="0px"
	 width="100%" viewBox="0 0 160 160" enable-background="new 0 0 160 160" xml:space="preserve">
<path fill="#498AEF" opacity="1.000000" stroke="none" 
	d="
M1.000000,160.000000 
	C1.000000,107.082932 1.000000,54.165863 1.000000,1.000000 
	C54.333076,1.000000 107.666534,1.000000 160.712051,1.666280 
	C134.329041,28.392729 108.233986,54.452896 81.838455,80.608734 
	C80.444672,81.718582 79.317596,82.698952 78.263016,83.751923 
	C54.025215,107.952843 29.802828,132.169220 5.544156,156.349182 
	C4.175864,157.713028 2.521315,158.789673 1.000000,160.000000 
z"/>
<path fill="#D94C43" opacity="1.000000" stroke="none" 
	d="
M1.000000,160.500000 
	C2.521315,158.789673 4.175864,157.713028 5.544156,156.349182 
	C29.802828,132.169220 54.025215,107.952843 78.263016,83.751923 
	C79.317596,82.698952 80.444672,81.718582 81.833611,80.937363 
	C82.908699,82.364311 83.508293,83.737656 84.493950,84.726006 
	C108.642250,108.940422 132.823074,133.122467 157.040680,157.267563 
	C158.157959,158.381500 159.671188,159.098267 161.000000,160.000000 
	C159.671829,160.333328 158.343918,160.956894 157.015427,160.958145 
	C105.010323,161.007416 53.005157,161.000000 1.000000,160.500000 
z"/>
<path fill="#FDFDFD" opacity="1.000000" stroke="none" 
	d="
M161.000000,159.531342 
	C159.671188,159.098267 158.157959,158.381500 157.040680,157.267563 
	C132.823074,133.122467 108.642250,108.940422 84.493950,84.726006 
	C83.508293,83.737656 82.908699,82.364311 82.134079,80.841698 
	C108.233986,54.452896 134.329041,28.392729 160.712051,2.166280 
	C161.000000,54.354229 161.000000,106.708458 161.000000,159.531342 
z"/>
</svg>